 <svg width="331px" height="454px" viewBox="0 0 331 454" version="1.1" xmlns="http://www.w3.org/2000/svg"
                xmlns:xlink="http://www.w3.org/1999/xlink">
                <!-- Generator: Sketch 49.1 (51147) - http://www.bohemiancoding.com/sketch -->
                <desc>Created with Sketch.</desc>
                <defs></defs>
                <g id="Page-1" stroke="none" stroke-width="1" fill="none" fill-rule="evenodd">
                    <g id="Group" transform="translate(1.000000, 1.000000)">
                        <path
                            d="M141.871048,369.909794 C158.773556,312.61455 154.469426,271.354275 137.897794,212.800459 C135.834852,205.511309 125.603374,160.591414 113.421222,142.61048 C110.271124,137.960916 108.400833,130.611908 103.095916,129.362204 C100.153345,128.669009 96.634488,142.462858 96.2504297,145.222272 C94.6160623,156.96501 101.115108,166.771515 111.837812,171.092922 C131.817729,179.145122 147.346257,187.244453 167.7285,187.034126 C195.04448,186.752249 226.743603,147.375792 210.63891,119.985252 C210.129233,119.118404 209.358121,118.32637 208.447912,117.972318 C184.224183,108.549784 176.085326,170.378752 175.855444,184.012793 C174.949317,237.754118 166.362751,323.040653 197.246208,372"
                            id="Path-2" stroke="#0B0B0B" stroke-width="2"></path>
                        <path
                            d="M115.616579,389.369932 C144.129753,399.153504 180.371908,402.882574 208.718039,390.47896 C210.201227,389.829951 213.925365,387.517572 212.323335,387.259304 C187.63919,383.279893 159.261852,389.457074 135.506758,395.682861 C133.989143,396.080601 120.737089,399.437813 123.145285,404.997433 C124.467529,408.049997 129.074935,409.360105 131.776144,409.55993 C133.884149,409.715872 200.236921,423.271616 215.314895,403.727264 C216.374865,402.35331 205.311516,402.002758 202.297913,402.261198 C195.405121,402.852311 188.642501,404.594132 181.742587,405.098541 C165.771869,406.266057 149.694743,405.81059 133.749096,407.272362 C129.25623,407.684233 124.880741,409.107957 120.667849,410.697395 C119.118857,411.281798 117.568877,412.284312 116.731586,413.692718 C115.605423,415.587037 114.701351,417.914946 115.092815,420.075159 C115.390512,421.717935 117.010659,423.051782 118.553513,423.746642 C123.302115,425.885284 128.296633,427.940565 133.501674,428.366012 C144.578378,429.271396 189.933009,437.721072 207.413449,422.789276 C208.318638,422.016063 209.13595,420.909631 209.225737,419.733919 C209.286547,418.937635 206.980601,416.978819 198.850068,417.389478 C175.275638,418.580183 151.697969,420.065367 128.228688,422.555464 C126.635094,422.724544 125.048753,423.898453 124.311704,425.298017 C123.204495,427.400471 122.555221,429.992857 123.097086,432.299744 C127.253215,449.993681 182.878234,444.170101 192.590607,443.070902 C198.041312,442.454018 203.283527,440.507792 208.393498,438.543161 C210.95999,437.556422 214.492577,436.832735 215.436999,434.287148 C216.023697,432.705768 212.363079,432.635512 210.665284,432.41981 C205.511918,431.765084 200.289161,431.613401 195.093749,431.702575 C180.086785,431.960154 165.08197,432.546488 150.101458,433.459326 C146.379261,433.686138 142.609965,434.053149 139.041361,435.118129 C134.217577,436.557693 129.380904,438.274907 125.115023,440.916039 C123.010109,442.219253 121.710582,444.53242 120.439707,446.634958 C119.448586,448.27467 119.090131,450.211653 118.415343,452"
                            id="Path-3" stroke="#0B0B0B" stroke-width="4"></path>
                        <path
                            d="M227.64386,370.73366 C226.167298,363.010633 227.64386,355.885356 227.64386,347.99996 C227.64386,317.652718 243.629344,308.126725 256,296 C267.679921,284.550389 283.55186,271.232222 295,253 C322,210 338,188 323,112 C314.640596,69.6456874 317.230469,59 256,20 C233.689333,5.78949285 202.874329,-5.00003975 142.874329,3.99996025 C89.5359638,12.000715 47.2532352,26.9999603 13.8743289,96.9999603 C-1.41120062,129.055746 -3.86147338,165.313087 7,208 C14.3789063,237 35.7841906,260.913578 59.8743289,283.99996 C83.8743289,306.99996 98.1068872,316.871755 100.874329,328.99996 C104.349587,344.230145 106.603496,356.819194 107.733704,372.445273"
                            id="lightbulb-bottom" stroke="#0B0B0B" stroke-width="4"></path>
                    </g>
                </g>
            </svg>